<svg xmlns="http://www.w3.org/2000/svg" xml:space="preserve" style="enable-background:new 0 0 500 500" viewBox="0 0 500 500"><path d="m412.922 143.677 9.664 5.995 1.833-2.96a2.704 2.704 0 0 1 2.544-1.255c.564.048 1.131.066 1.7.054a2.702 2.702 0 0 1 2.454 1.411l1.645 3.068 10.025-5.377-1.645-3.068a2.7 2.7 0 0 1 .182-2.824 16 16 0 0 0 .896-1.446 2.704 2.704 0 0 1 2.452-1.425l3.48.11.353-11.367-3.493-.105c-1.024-.031-1.915-.658-2.353-1.585a17.444 17.444 0 0 0-.791-1.476c-.527-.873-.558-1.957-.021-2.824l1.847-2.981-9.664-5.994-1.84 2.965a2.706 2.706 0 0 1-2.546 1.253 15.926 15.926 0 0 0-1.693-.056 2.701 2.701 0 0 1-2.451-1.411l-1.646-3.069-10.025 5.377 1.646 3.069a2.7 2.7 0 0 1-.181 2.822c-.323.465-.62.947-.89 1.441a2.705 2.705 0 0 1-2.452 1.428l-3.488-.107-.353 11.367 3.49.108c1.021.032 1.908.658 2.345 1.581a16.689 16.689 0 0 0 .794 1.481c.53.877.56 1.967.02 2.838l-1.838 2.962zm7.177-9.624c-2.431-4.534-.729-10.175 3.805-12.606s10.183-.733 12.614 3.801c2.431 4.534.725 10.187-3.809 12.618-4.533 2.431-10.178.72-12.61-3.813zM441.301 204.564l3.982 6.901 2.112-1.22a1.895 1.895 0 0 1 1.986.067c.332.217.677.416 1.032.596a1.892 1.892 0 0 1 1.048 1.684v2.439h7.969v-2.439c0-.715.41-1.359 1.048-1.684.355-.181.7-.38 1.032-.596a1.893 1.893 0 0 1 1.986-.067l2.112 1.22 3.982-6.901-2.121-1.221c-.622-.358-.964-1.041-.928-1.758a11.44 11.44 0 0 0 0-1.173c-.037-.714.303-1.393.922-1.75l2.127-1.229-3.982-6.901-2.118 1.221a1.893 1.893 0 0 1-1.986-.07 11.01 11.01 0 0 0-1.027-.595 1.892 1.892 0 0 1-1.046-1.683v-2.439h-7.969v2.439c0 .715-.409 1.358-1.046 1.683-.354.18-.696.379-1.027.595a1.893 1.893 0 0 1-1.986.07l-2.118-1.221-3.982 6.901 2.119 1.222c.62.358.961 1.038.924 1.753a11.538 11.538 0 0 0 0 1.178c.037.717-.305 1.4-.927 1.758l-2.118 1.22zm7.618-3.565a6.521 6.521 0 0 1 6.523-6.523 6.526 6.526 0 0 1 6.529 6.523 6.531 6.531 0 0 1-6.529 6.529 6.526 6.526 0 0 1-6.523-6.529zM30.411 329.586l3.982 6.901 2.112-1.22a1.895 1.895 0 0 1 1.986.067c.332.217.676.416 1.032.596a1.891 1.891 0 0 1 1.048 1.683v2.439h7.97v-2.439c0-.715.41-1.359 1.048-1.683.355-.181.7-.38 1.032-.596a1.893 1.893 0 0 1 1.986-.067l2.112 1.22 3.982-6.901-2.122-1.221c-.622-.358-.964-1.041-.928-1.758a11.43 11.43 0 0 0 0-1.172c-.037-.714.304-1.393.922-1.75l2.127-1.229-3.982-6.901-2.118 1.221a1.893 1.893 0 0 1-1.986-.07 11.141 11.141 0 0 0-1.027-.595 1.892 1.892 0 0 1-1.046-1.683v-2.439h-7.97v2.439c0 .715-.409 1.358-1.046 1.683-.354.18-.696.379-1.027.595a1.893 1.893 0 0 1-1.986.07l-2.118-1.221-3.982 6.901 2.119 1.222c.62.358.96 1.038.924 1.753a11.538 11.538 0 0 0 0 1.177c.037.717-.305 1.4-.927 1.759l-2.117 1.219zm7.618-3.565a6.521 6.521 0 0 1 6.523-6.523c3.604 0 6.529 2.919 6.529 6.523s-2.925 6.529-6.529 6.529a6.526 6.526 0 0 1-6.523-6.529z" style="fill:#ebebeb"/><path d="M76.222 0h1v83.767h-1z" style="fill:#c7c7c7"/><path d="m105.809 111.806-2.34 5.143H49.967l-2.333-5.143L70.412 96.04h12.619z" style="fill:#ebebeb"/><path d="m84.612 80.85-1.581 15.19H70.412l-1.581-15.19zM105.806 111.808l-2.339 5.143H49.964l-2.332-5.143z" style="fill:#dbdbdb"/><path d="M146.568 0h1v67.175h-1z" style="fill:#c7c7c7"/><path d="m176.156 95.214-2.34 5.143h-53.502l-2.333-5.143 22.778-15.766h12.619z" style="fill:#ebebeb"/><path d="m154.959 64.258-1.581 15.19h-12.619l-1.581-15.19zM176.153 95.216l-2.339 5.143h-53.503l-2.332-5.143z" style="fill:#dbdbdb"/><path d="M323.08 273.675h39.992v38.43H323.08z" style="fill:#ebebeb"/><path d="M363.072 273.675h15.198v38.43h-15.198zM323.08 292.89h39.992l-31.233.989zM363.072 307.462H323.08l31.233.989zM323.08 282.148h25.332l-22.519.808zM363.072 301.805H337.74l22.519.807zM332.673 277.871h28.572l-4.762.484zM326.967 297.01h28.572l-4.762.484z" style="fill:#c7c7c7"/><path d="M344.538 285.807h18.534l3.311 1.292zM317.974 285.807h18.534l3.311 1.292zM341.757 303.079h-18.535l-3.311 1.292z" style="fill:#ebebeb"/><path d="M363.072 298.693h14.883l3.312 1.292zM368.267 292.89h11.542l-1.538-1.056z" style="fill:#c7c7c7"/><path d="M303.537 387.11h118.19l3.801-74.996H299.735z" style="fill:#ebebeb"/><path d="M308.029 320.87h106.215l-1.613 25.113H309.412zM311.283 353.356l1.124 22.579h98.813l1.411-22.579z" style="fill:none;stroke:#dbdbdb;stroke-miterlimit:10"/><path d="M372.585 335.788H351.33l-.691-5.357h22.637zM372.585 367.324H351.33l-.691-5.357h22.637z" style="fill:none;stroke:#dbdbdb;stroke-miterlimit:10"/><path d="m319.927 387.109-1.147 8.17-2.309 16.416h-4.513v-24.586z" style="fill:#ebebeb"/><path d="m319.927 387.109-1.147 8.17h-6.822v-8.17z" style="fill:#dbdbdb"/><path d="m405.336 387.109 1.147 8.17 2.309 16.416h4.513v-24.586z" style="fill:#ebebeb"/><path d="m405.336 387.109 1.147 8.17h6.822v-8.17z" style="fill:#dbdbdb"/><ellipse cx="250" cy="447.182" rx="203.001" ry="23.069" style="fill:#ebebeb"/><path d="m36.469 412.478 53.382-.243 53.383-.088L250 411.979l106.766.167 53.382.088 53.383.244-53.383.245-53.382.088-106.766.166-106.766-.167-53.383-.089z" style="fill:#263238"/><path d="M178.298 435.722h-6.705l47-188.307h16.705z" style="fill:#455a64"/><path d="M218.59 247.416h16.71l-13.02 43.01h-14.42z" style="fill:#263238"/><path d="M243.353 425.722h-6.706l5-178.307h16.706z" style="fill:#455a64"/><path d="M241.65 247.416h16.7l-3.62 43.01h-14.29z" style="fill:#263238"/><path d="M308.702 435.722h6.705l-37-188.307h-16.705z" style="fill:#455a64"/><path d="M286.86 290.426h-14.43l-10.73-43.01h16.71z" style="fill:#263238"/><path d="M197.433 355.05h97.52v3.677h-97.52z" style="fill:#455a64"/><path d="M117.173 63.049h265.654v196.016H117.173z" style="fill:#ebebeb"/><path d="M107.445 55.244h285.109v14.525H107.445z" style="fill:#37474f"/><path d="M199.362 94.388h101.275v2.244H199.362zM216.679 99.074h66.641v2.244h-66.641zM166.906 118.414l87.35-.232c29.117.082 49.722.031 78.838.232-29.117.2-49.722.15-78.838.232l-87.35-.232zM166.906 125.538l87.35-.232c29.117.082 49.722.031 78.838.232-29.117.2-49.722.15-78.838.232l-87.35-.232zM166.906 132.662l87.35-.232c29.117.082 49.722.031 78.838.232-29.117.2-49.722.15-78.838.232l-87.35-.232zM166.906 139.786l87.35-.232c29.117.082 49.722.031 78.838.232-29.117.2-49.722.15-78.838.232l-87.35-.232zM166.906 146.909l87.35-.232c29.117.082 49.722.031 78.838.232-29.117.2-49.722.15-78.838.232l-87.35-.232zM166.906 154.033l87.35-.232c29.117.082 49.722.032 78.838.232-29.117.2-49.722.15-78.838.232l-87.35-.232zM166.906 161.157l87.35-.232c29.117.082 49.722.031 78.838.232-29.117.2-49.722.15-78.838.232l-87.35-.232zM166.906 168.281l87.35-.232c29.117.082 49.722.031 78.838.232-29.117.2-49.722.15-78.838.232l-87.35-.232zM166.906 175.405l87.35-.232c29.117.082 49.722.032 78.838.232-29.117.2-49.722.15-78.838.232l-87.35-.232zM166.906 182.529l87.35-.232c29.117.082 49.722.032 78.838.232-29.117.2-49.722.15-78.838.232l-87.35-.232zM166.906 189.653l87.35-.232c29.117.082 49.722.032 78.838.232-29.117.2-49.722.15-78.838.232l-87.35-.232zM166.906 196.777l87.35-.232c29.117.082 49.722.031 78.838.232-29.117.2-49.722.15-78.838.232l-87.35-.232zM166.906 203.901l87.35-.232c29.117.082 49.722.031 78.838.232-29.117.2-49.722.15-78.838.232l-87.35-.232zM166.906 211.025l87.35-.232c29.117.082 49.722.032 78.838.232-29.117.2-49.722.15-78.838.232l-87.35-.232zM166.906 218.148l87.35-.232c29.117.082 49.722.031 78.838.232-29.117.2-49.722.15-78.838.232l-87.35-.232z" style="fill:#c7c7c7"/><path d="M185.379 200.021h13.248v26.433h-13.248zM209.955 180.027h13.248v46.426h-13.248zM234.532 175.602h13.248v50.851h-13.248zM259.108 162.482h13.248v63.972h-13.248zM283.684 134.535h13.248v91.919h-13.248zM308.26 123.193h13.248v103.26H308.26z" style="fill:#ffc727"/><path d="m171.647 113.414.361 28.26.248 28.26c.17 18.84.22 37.68.251 56.519l-.861-.86 42.49-.036 42.49.102 42.49.285 33.978.511-33.978.511-42.49.285-42.49.102-42.49-.036-.862-.001.001-.86c.031-18.84.081-37.68.251-56.519l.248-28.26.363-28.263zM185.379 232.426h13.248v1.198h-13.248zM209.955 232.426h13.248v1.198h-13.248zM234.532 232.426h13.248v1.198h-13.248zM259.108 232.426h13.248v1.198h-13.248zM283.684 232.426h13.248v1.198h-13.248zM308.26 232.426h13.248v1.198H308.26z" style="fill:#c7c7c7"/><path d="M185.379 198.935s72.493-12.067 130.486-78.213" style="fill:none;stroke:#263238;stroke-miterlimit:10"/><path d="m317.228 122.895.983-4.888-4.725 1.592z" style="fill:#263238"/><path d="M343.818 102.559h32.878v38.958h-32.878z" style="fill:#fff"/><path d="M361.439 105.208a1.182 1.182 0 1 1-2.363 0 1.182 1.182 0 0 1 2.363 0z" style="fill:#455a64"/><path d="M350.074 110.362c3.324-.256 6.648-.272 9.973-.309 3.324.036 6.648.051 9.973.309-3.324.258-6.648.273-9.973.309-3.325-.037-6.649-.053-9.973-.309zM350.074 113.441c1.807-.241 3.614-.297 5.421-.309 1.807.011 3.614.067 5.421.309-1.807.243-3.614.298-5.421.309-1.807-.012-3.614-.068-5.421-.309zM350.074 116.52c2.309-.241 4.618-.297 6.927-.309 2.309.011 4.618.067 6.927.309-2.309.242-4.618.298-6.927.309-2.309-.013-4.618-.069-6.927-.309zM350.074 119.598c2.889-.241 5.778-.297 8.668-.309 2.889.011 5.778.067 8.667.309-2.889.243-5.778.298-8.667.309-2.89-.012-5.779-.068-8.668-.309zM350.074 122.677c2.51-.241 5.02-.297 7.53-.309 2.51.011 5.02.067 7.53.309-2.51.243-5.02.298-7.53.309-2.51-.012-5.02-.068-7.53-.309zM350.074 125.756c3.213-.256 6.425-.273 9.638-.309 3.213.036 6.425.051 9.638.309-3.213.257-6.425.273-9.638.309-3.213-.037-6.425-.053-9.638-.309zM350.074 128.835c2.075-.241 4.15-.297 6.224-.309 2.075.011 4.15.067 6.225.309-2.075.242-4.15.298-6.225.309-2.074-.012-4.149-.068-6.224-.309zM350.074 131.913c3.324-.256 6.648-.272 9.973-.309 3.324.036 6.648.051 9.973.309-3.324.258-6.648.273-9.973.309-3.325-.036-6.649-.053-9.973-.309zM350.074 134.992c3.324-.256 6.648-.273 9.973-.309 3.324.036 6.648.051 9.973.309-3.324.258-6.648.273-9.973.309-3.325-.036-6.649-.053-9.973-.309z" style="fill:#ebebeb"/><path d="M125.44 146.548h38.904v46.098H125.44z" style="fill:#fff"/><path d="M146.074 152.767a1.182 1.182 0 1 1-2.363 0 1.182 1.182 0 0 1 2.363 0z" style="fill:#455a64"/><path d="M130.884 158.049c1.438-.241 2.876-.297 4.314-.309 1.438.011 2.876.067 4.314.309-1.438.243-2.876.298-4.314.309-1.438-.012-2.876-.068-4.314-.309zM130.884 161.524c1.862-.241 3.724-.297 5.586-.309 1.862.011 3.724.067 5.586.309-1.862.243-3.724.298-5.586.309-1.862-.012-3.724-.067-5.586-.309zM130.884 165c1.725-.241 3.45-.297 5.175-.309 1.725.011 3.45.067 5.175.309-1.725.242-3.45.298-5.175.309-1.725-.012-3.45-.068-5.175-.309zM130.884 168.476c1.725-.241 3.45-.297 5.175-.309 1.725.011 3.45.067 5.175.309-1.725.242-3.45.298-5.175.309-1.725-.012-3.45-.068-5.175-.309zM130.884 171.952c1.499-.241 2.997-.297 4.495-.309 1.499.011 2.997.067 4.495.309-1.498.243-2.997.298-4.495.309-1.498-.012-2.996-.068-4.495-.309zM130.884 175.428c1.918-.241 3.836-.297 5.754-.309 1.918.011 3.836.067 5.754.309-1.918.243-3.836.298-5.754.309-1.918-.013-3.836-.068-5.754-.309zM130.884 178.903c1.583-.241 3.166-.297 4.749-.309 1.583.011 3.166.067 4.749.309-1.583.243-3.166.298-4.749.309-1.583-.012-3.166-.068-4.749-.309zM130.884 182.379c1.985-.241 3.969-.297 5.954-.309 1.985.011 3.969.067 5.954.309-1.985.242-3.969.298-5.954.309-1.984-.012-3.969-.068-5.954-.309zM130.884 185.855c1.985-.241 3.969-.297 5.954-.309 1.985.011 3.969.067 5.954.309-1.985.243-3.969.298-5.954.309-1.984-.012-3.969-.068-5.954-.309zM147.885 158.049c1.884-.241 3.769-.297 5.653-.309 1.884.011 3.768.067 5.653.309-1.884.243-3.768.298-5.653.309-1.885-.012-3.769-.068-5.653-.309zM147.885 161.524c1.239-.241 2.477-.297 3.716-.309 1.239.011 2.478.067 3.716.309-1.239.243-2.478.298-3.716.309-1.239-.012-2.478-.067-3.716-.309zM147.885 165c1.773-.241 3.545-.297 5.318-.309 1.773.011 3.546.067 5.318.309-1.773.242-3.546.298-5.318.309-1.773-.012-3.546-.068-5.318-.309zM147.885 168.476c1.725-.241 3.45-.297 5.175-.309 1.725.011 3.45.067 5.175.309-1.725.242-3.45.298-5.175.309-1.726-.012-3.45-.068-5.175-.309zM147.885 171.952c1.884-.241 3.769-.297 5.653-.309 1.884.011 3.768.067 5.653.309-1.884.243-3.768.298-5.653.309-1.885-.012-3.769-.068-5.653-.309zM147.885 175.428c1.498-.241 2.997-.297 4.495-.309 1.498.011 2.997.067 4.495.309-1.499.243-2.997.298-4.495.309-1.498-.013-2.997-.068-4.495-.309zM147.885 178.903c1.773-.241 3.545-.297 5.318-.309 1.773.011 3.546.067 5.318.309-1.773.243-3.546.298-5.318.309-1.773-.012-3.546-.068-5.318-.309zM147.885 182.379c1.371-.241 2.742-.297 4.113-.309 1.371.011 2.742.067 4.113.309-1.371.242-2.742.298-4.113.309-1.371-.012-2.742-.068-4.113-.309zM147.885 185.855c1.315-.241 2.631-.297 3.946-.309 1.315.011 2.631.067 3.946.309-1.315.243-2.631.298-3.946.309-1.316-.012-2.631-.068-3.946-.309z" style="fill:#ebebeb"/><path d="M330.292 85.313h19.782v19.782h-19.782z" style="fill:#ffc727"/><path d="M341.365 87.321a1.182 1.182 0 1 1-2.363 0 1.182 1.182 0 0 1 2.363 0z" style="fill:#455a64"/><path d="M154.631 308.343a41.143 41.143 0 0 0 .8 15.82c.602 2.409 1.428 4.731 2.424 6.994 1.258 2.894 2.574 5.72 2.257 8.887-.306.204.743.171.777-.137 8.463-4.818 19.316-5.701 25.829-13.58 3.085-3.73 4.641-8.459 5.379-13.189.801-5.15 1.023-10.851-.305-15.927-1.119-4.293-3.628-8.434-7.662-10.537-4.164-2.165-9.617-1.985-14.001-.624-9.457 2.94-14.161 13.145-15.498 22.293z" style="fill:#ffc727"/><path d="M150.286 370.993c1.155-3.849 2.309-7.7 3.495-11.54 2.322-7.522 4.736-15.016 7.408-22.422a341.239 341.239 0 0 1 5.066-13.18c-.303-2.733-.423-5.457-1.01-8.181-.708-3.281-1.735-6.45-2.693-9.661-.059-.198.261-.302.342-.114 1.9 4.423 4.38 10.084 4.442 15.323a250.23 250.23 0 0 1 6.652-14.559c.134-4.075.283-8.025-.373-12.126-.029-.184.251-.24.285-.055.636 3.443 1.084 7.136.828 10.704a203.65 203.65 0 0 1 5.775-10.633c.184-.315.619.007.458.317-3.181 6.124-6.131 12.376-8.898 18.712 3.834-3.4 8.476-5.974 13.269-7.684.211-.075.369.23.155.319-5.454 2.28-10.033 5.503-14.352 9.502a383.826 383.826 0 0 0-5.689 14.029c5.296-5.191 12.542-8.607 19.552-10.438.239-.062.302.303.072.372-8.112 2.442-14.414 7.041-20.583 12.566a432.747 432.747 0 0 0-2.11 5.727 709.238 709.238 0 0 0-7.467 21.889 1004.1 1004.1 0 0 0-3.36 10.565c-1.184 3.795-2.109 7.803-3.65 11.467-.147.35-.776.27-.696-.149.696-3.635 2.019-7.207 3.082-10.75z" style="fill:#263238"/><path d="M164.324 300.935a21.026 21.026 0 0 1 3.048 7.598c.013.069-.095.111-.121.04a65.559 65.559 0 0 0-3.304-7.455c-.128-.246.235-.402.377-.183zM179.422 318.569c2.19-1.246 5.098-2.229 7.595-2.557.069-.009.112.092.041.121-1.221.507-2.504.861-3.74 1.336-1.241.477-2.451 1.056-3.706 1.492-.26.091-.438-.251-.19-.392zM183.676 297.357c.77-.51 1.589-1.163 2.443-1.508.134-.054.251.112.14.214-.677.624-1.621 1.087-2.408 1.562-.155.093-.328-.167-.175-.268z" style="fill:#263238"/><path d="M126.099 337.088c6.096 1.809 12.222 3.482 18.316 5.27.529.159 10.834-19.586 7.11-29.758-3.442-9.415-11.322-16.461-20.717-19.659-4.352-1.479-9.703-2.72-14.301-1.706-4.088.905-6.975 4.25-8.304 8.095-1.81 5.225-1.206 11.458-.222 16.793.915 4.947 2.725 9.819 5.997 13.706 3.239 3.848 7.37 5.85 12.121 7.259z" style="fill:#ffc727"/><path d="M117.262 318.323c3.881 1.957 7.813 3.375 11.951 4.705 2.591.833 5.494 1.585 7.978 2.888-2.574-5.739-5.398-11.357-8.397-16.926-3.938-1.14-8.079-2.917-11.048-5.704-.162-.152.046-.38.222-.256 3.248 2.295 6.83 3.673 10.423 5.225a387.095 387.095 0 0 0-2.463-4.488c-.232-.415.34-.828.619-.424 3.195 4.61 6.069 9.496 8.661 14.545.643-4.455.875-8.795.627-13.327-.006-.116.16-.124.177-.013.754 4.793.718 9.864-.15 14.644a163.024 163.024 0 0 1 5.834 13.063c.696-2.659 1.599-5.276 2.202-7.957.868-3.858 1.275-7.788.876-11.734-.012-.115.158-.123.177-.013 1.182 6.995.104 14.894-2.558 21.539a190.369 190.369 0 0 1 2.88 8.017c4.551 13.715 7.357 27.855 8.09 42.291.017.333-.477.367-.515.037-1.656-14.161-4.58-28.257-9.083-41.793-1.768-5.314-3.802-10.474-6.035-15.537-3.6-1.064-7.186-2.507-10.723-3.732-3.45-1.195-6.986-2.577-9.883-4.845-.111-.087.013-.269.138-.205z" style="fill:#263238"/><path d="M111.579 312.587c3.728 1.326 7.261 3.182 10.985 4.526.174.063.073.339-.103.303-3.94-.813-7.849-2.031-11.024-4.616-.122-.099.013-.259.142-.213zM142.018 304.544c-.045-.198.244-.311.304-.108 1.022 3.436 1.728 7.083.733 10.595-.039.138-.255.142-.264-.017-.178-3.538.02-6.981-.773-10.47zM126.615 296.606c1.249 1.595 1.699 3.859 1.618 5.843-.005.131-.215.207-.25.052-.454-1.966-1.214-3.758-1.817-5.667-.089-.279.272-.454.449-.228z" style="fill:#263238"/><path d="M198.602 345.797c-1.787 5.671-6.033 13.511-12.757 13.573-4.359.041-8.749-.475-13.119-.537-4.679-.072-9.369-.062-14.038.217-.382.021.56-14.012 11.807-20.845 3.151-1.914 7.004-2.521 10.578-3.295 4.091-.889 8.305-1.488 12.499-1.302 2.582.103 4.731.651 5.65 3.295.96 2.769.237 6.198-.62 8.894z" style="fill:#ffc727"/><path d="M193.763 338.7c-2.733.703-5.49 1.51-8.233 2.381.733-.76 1.448-1.531 2.266-2.211 1.178-.979 2.474-1.761 3.737-2.619.106-.072.043-.275-.093-.221-2.494.98-5.087 3.027-6.632 5.275a139.887 139.887 0 0 0-10.063 3.66 37.815 37.815 0 0 0-6.443 3.393c.718-1.388 1.372-2.813 2.331-4.056 1.492-1.935 3.512-3.012 5.466-4.386.185-.13.028-.39-.175-.299-4.413 1.961-7.097 5.145-8.77 9.511-2.307 1.646-4.419 3.566-6.38 5.792-7.441 8.452-13.301 19.697-13.322 31.171-.001.274.439.351.491.066 2.112-11.398 6.613-21.633 14.19-30.48a38.458 38.458 0 0 1 1.636-1.786c2.046-.215 4.073-.488 6.147-.456 2.394.036 4.77.352 7.153.546 3.926.319 8.267.365 11.809-1.61.156-.087.051-.359-.124-.295-7.895 2.871-16.175-.771-24.089.941 3.376-3.238 7.211-5.678 11.671-7.527.241-.1.484-.193.726-.291 5.067.609 10.416 1.929 15.35.282.147-.049.088-.271-.065-.233-4.768 1.191-9.34-.307-14.045-.545 5.123-1.994 10.344-3.582 15.485-5.562.434-.166.444-.562-.024-.441z" style="fill:#263238"/><path d="M195.999 343.688c-2.473.407-4.888.42-7.375.559-.056.003-.075.089-.014.103 2.425.545 5.078.209 7.44-.475.122-.036.069-.207-.051-.187zM179.343 338.824c-1.345.465-2.597 1.606-3.65 2.538-.128.114.044.344.186.241a40.092 40.092 0 0 1 1.899-1.29c.586-.379 1.241-.68 1.778-1.125.166-.139-.013-.434-.213-.364z" style="fill:#263238"/><path d="M139.632 357.084c.083.186-.186.361-.289.165-.01 0-.01 0-.01-.01-.041.052-.093.103-.176.114-4.545.981-9.111 1.983-13.739 2.397-3.719.331-8.006.537-11.26-1.622-4.411-2.923-7.313-10.743-4.927-15.711 2.82-5.898 11.321-2.696 15.588-.599 6.56 3.201 11.828 8.614 14.813 15.266z" style="fill:#ffc727"/><path d="M142.931 359.811c-2.502-2.448-5.269-4.486-8.203-6.244-2.011-3.415-5.098-6.25-8.319-8.478-.161-.111-.299.144-.151.258 2.777 2.138 4.945 4.647 7.01 7.374-3.282-1.831-6.753-3.34-10.292-4.681-1.233-2.26-3.24-4.376-5.529-5.54-.046-.023-.104.04-.059.076 1.996 1.563 3.598 3.185 4.993 5.24a181.612 181.612 0 0 0-6.314-2.207c-.19-.063-.262.225-.082.296 3.757 1.468 7.599 3.017 11.323 4.803-4.7.63-8.932.776-13.712-.04-.126-.021-.181.158-.054.195 4.612 1.316 9.9 1.56 14.549.217 2.375 1.167 4.693 2.441 6.901 3.865-1.848-.24-3.706.084-5.578.456-3.265.649-6.458 1.224-9.801 1.11-.125-.004-.157.2-.03.222 5.686.978 11.062-1.606 16.698-.934 2.087 1.435 4.06 3.018 5.869 4.794 3.542 3.476 6.376 7.632 8.56 12.077 2.372 4.828 3.659 9.947 5.576 14.935a.182.182 0 0 0 .35-.097c-1.642-9.837-6.539-20.685-13.705-27.697z" style="fill:#263238"/><path d="M125.782 346.322c-.331-.678-.912-1.256-1.456-1.767-.476-.446-1.058-1.023-1.679-1.257-.057-.021-.089.056-.055.094.466.529 1.115.917 1.618 1.423.507.511.926 1.107 1.439 1.608.072.071.175-.017.133-.101zM116.404 349.375c-.843-.211-1.735-.196-2.593-.371-.867-.177-1.674-.486-2.513-.753-.111-.035-.175.127-.078.184 1.384.822 3.568 1.521 5.184 1.204.135-.026.127-.232 0-.264z" style="fill:#263238"/><path d="m166.36 375.385-.746 8.477-2.533 28.616h-22.412l-3.164-28.616-.934-8.477z" style="fill:#455a64"/><path d="m166.36 375.385-.746 8.477h-28.109l-.934-8.477z" style="fill:#263238"/><path d="M134.351 373.074h34.228v6.876h-34.228z" style="fill:#455a64"/><path d="M349.698 445.193c1.977.638 58.324-.093 60.45-1.484.817-.515 1.189-8.732 1.354-18.673l.002-.311c.038-2.048.065-4.158.068-6.296.001-.294.001-.589.011-.882.079-14.347-.148-29.232-.148-29.232l-37.693.377 1.134 28.958.043 1.147.227 5.994.022.617s-21.443 9.927-23.621 11.703c-2.16 1.768-3.826 7.453-1.849 8.082z" style="fill:#eb9481"/><path d="M366.63 429.261c.147-.043.224-.086.233-.129 0-.001-.086.042-.233.129z" style="fill:#ffc727"/><path d="M349.701 445.19c1.974.638 58.321-.086 60.45-1.483.724-.457 1.103-6.999 1.293-15.429-10.326 2.155-50.339 10.249-51.434 6.827-.431-1.345 2.991-3.672 5.155-4.982-5.913 2.819-12.464 6.042-13.619 6.99-2.155 1.767-3.828 7.448-1.845 8.077z" style="fill:#455a64"/><path d="M385.093 445.104c12.68-.302 24.118-.784 25.058-1.396.724-.457 1.103-6.999 1.293-15.429-1.465.302-3.534.733-5.999 1.224l-20.352 15.601z" style="fill:#263238"/><path d="M423 226.001s-8.46 95.214-9.839 102.48c-.319 1.655-.517 10.654-.647 22.221-.293 25.239-.119 70.761-.119 70.761h-39.72s1.179-78.872 2.937-93.388C377.371 313.551 388.611 226 388.611 226H423z" style="fill:#37474f"/><path d="M374.471 414.543c6.198-.129 4.417-.179 10.616-.239 3.033-.029 22.967-.203 25.801.266.063.01.063.116 0 .126-2.834.469-22.767.296-25.801.267-6.199-.06-4.418-.11-10.616-.239-.116-.002-.116-.178 0-.181zM404.849 369.455l.129-17.283c.04-5.58.033-11.165.298-16.74.538-11.288 2.827-22.385 4.456-33.545 1.629-11.166 2.988-22.371 4.218-33.588 1.38-12.584 2.6-25.185 3.893-37.778.009-.085.142-.084.135.003-1.871 22.485-3.96 44.964-7.073 67.316a662.926 662.926 0 0 1-2.538 16.645c-.927 5.605-1.849 11.214-2.291 16.883-.433 5.548-.503 11.117-.56 16.679-.059 5.757-.116 11.514-.172 17.272-.124 12.788-.248 32.473-.372 45.261-.002.247-.386.238-.384-.009.087-11.407.174-29.709.261-41.116z" style="fill:#263238"/><path d="M431.374 226.001s-16.834 95.214-18.213 102.48c-.319 1.655-.517 10.654-.647 22.221l-.009.034L393.576 226h37.798z" style="fill:#263238"/><path d="M395.823 448.551c2.017.496 58.171-4.224 60.193-5.763.779-.571.568-8.794.028-18.721l-.02-.311c-.107-2.046-.23-4.152-.378-6.285-.02-.294-.04-.587-.052-.881-.937-14.316-2.218-29.148-2.218-29.148l-37.572 3.046 3.182 28.805.124 1.141.652 5.963.066.614s-20.686 11.421-22.733 13.347c-2.03 1.918-3.289 7.706-1.272 8.193z" style="fill:#eb9481"/><path d="M395.825 448.552c2.017.5 58.166-4.224 60.192-5.767.664-.483.612-6.56.241-14.498-8.697 2.224-50.615 12.766-51.9 9.301-.267-.733.621-1.819 1.827-2.879-4.344 2.517-8.258 4.861-9.094 5.646-2.024 1.921-3.283 7.705-1.266 8.197z" style="fill:#455a64"/><path d="m418.143 423.61 39.683-1.682s-10.832-87.08-11.032-92.431c-.298-7.957-4.114-40.797-7.318-67.386 0 0 6.075-14.396-5.295-36.141h-45.603s3.057 20.693 8.289 33.814c0 0 3.985 1.236 10.139 4.628 0 0 4.539 59.283 4.709 66.677.335 14.616 6.428 92.521 6.428 92.521z" style="fill:#37474f"/><path d="M419.199 416.336c6.187-.391 4.406-.366 10.596-.689 3.03-.158 22.938-1.175 25.789-.826.063.008.068.113.005.126-2.812.589-22.735 1.26-25.766 1.359-6.196.203-4.419.077-10.617.211-.116.003-.124-.173-.007-.181zM395.135 258.883c4.11 1.414 8.077 3.423 11.87 5.528.149.082.051.314-.11.244-3.999-1.717-8.076-3.36-11.975-5.295-.307-.152-.1-.586.215-.477zM393.864 231.445c.011-.138.254-.169.253-.02-.032 4.747.27 8.924.671 13.36.186 2.06 1.843 13.442 5.414 12.612.598-.139.903-.727.997-1.629.113-1.084-.295-2.413-.474-3.491a90.301 90.301 0 0 1-.919-7.18c-.382-4.493-.401-8.986.145-13.465.018-.147.23-.136.23.013-.005 6.22.157 12.428 1.087 18.588.447 2.96 1.938 7.418-1.158 7.873-3.155.464-5.194-7.002-5.579-9.044-1.075-5.698-1.117-11.85-.667-17.617z" style="fill:#263238"/><path d="M400.106 257.704c.323.764.582 1.56.803 2.359.171.621.405 1.292.334 1.939-.014.126-.18.138-.247.053-.419-.531-.596-1.258-.83-1.887-.272-.73-.559-1.454-.81-2.191-.166-.489.551-.744.75-.273zM376.697 183.529c-.017.215.108.441.316.476.478.049 1.053.099 1.699.158 1.7-4.216 3.484-7.555 2.999-6.246-.702 1.894-1.275 4.629-1.329 6.393.749.063 2.486.191 3.356.255 1.631-7.454 3.558-12.964 3.382-11.254-.71 6.897-.419 9.127-.068 11.509 8.101.591 18.732 1.241 26.431 1.535 1.06-4.117 2.022-8.577 2.144-8.261.954 2.363 1.1 5.76 1.017 8.373 2.452.075 4.414.086 5.612.03 0 0 .716-3.465.845-4.608a25.389 25.389 0 0 0-.502-8.735c-.696-2.919-2.001-5.513-3.23-8.169a.225.225 0 0 0-.031-.058c.003-.008-.005-.011-.009-.022-.84-1.838-1.445-3.593-1.828-5.445a.143.143 0 0 1-.012-.042 25.083 25.083 0 0 1-.464-4.16c-.148-5.118-2.657-9.6-7.09-11.054-8.128-8.739-16.77-5.346-19.605 1.145a27.978 27.978 0 0 0-.809 2.152l-.008.025c-.99 2.932-1.925 6.746-2.765 9.691.005.011-.005.016-.005.016.005.011.002.019-.01.033l-.003.008c-.411 1.402-.79 2.594-1.148 3.397-2.36 5.282-7.38 8.196-8.885 22.858z" style="fill:#263238"/><path d="M411.833 145.658c2.879 1.712 4.587 4.154 4.89 7.895.177 2.18.225 4.305.921 6.375.718 2.137 1.922 3.904 3.161 5.669 1.969 2.806 3.309 5.584 3.482 9.252.176 3.725-.172 8.107-1.486 11.547-.008.02-.035.01-.028-.011 1.095-3.493 1.32-8.361.885-12.059-.477-4.061-2.514-6.658-4.579-9.785-1.64-2.484-2.639-5.211-2.881-8.334-.144-1.849-.039-3.766-.661-5.519-.742-2.092-2.339-3.45-3.928-4.659-.216-.163.005-.501.224-.371zM380.411 166.272c2.198-2.847 4.464-5.265 5.829-8.831 1.244-3.249 2.021-6.695 3.284-9.939.021-.052.093-.029.074.027-1.979 5.767-2.557 11.621-6.265 16.423-2.015 2.609-4.021 5.023-5.408 8.177-1.458 3.314-2.169 6.782-2.406 10.458-.008.129-.162.118-.168-.006-.277-5.966 1.609-11.838 5.06-16.309z" style="fill:#263238"/><path d="M403.175 187.395c-8.54 19.803-21.208 39.989-27.877 43.356-4.682 2.364-13.942 2.22-16.974-3.189-6.615-11.803-8.938-30.713-7.312-40.492.578-3.478 19.008-4.922 20.413-1.424 3.291 8.19 4.359 16.679 5.395 16.679.885 0 5.715-6.605 16.592-18.168 11.34-12.055 12.749-3.686 9.763 3.238z" style="fill:#eb9481"/><path d="M350.779 190.197s.317-10.307 3.984-17.175c2.536-4.749 9.205-14.466 25.261-15.15 3.808-.162 9.349 2.308 3.226 4.831-4.35 1.793-7.65 1.615-9.99 3.119 0 0 6.676 3.978 6.689 7.799.006 1.708-.087 6.369-.676 9.988 0 0-.823.083-1.881.041 0 0-.1 3.578-4.094 7.287l-22.519-.74z" style="fill:#eb9481"/><path d="M357.907 168.876c2.638-1.001 8.265-3.029 13.446-3.087 5.754-.064 16.855 1.362 16.859 5.61.003 3.115-4.284 2.943-4.284 2.943s4.464 1.557 3.851 4.371c-.559 2.564-3.867 2.233-3.867 2.233s2.546 1.41 1.532 3.777c-1.219 2.847-6.354-.576-10.081 1.24-.836.407-17.456-17.087-17.456-17.087z" style="fill:#eb9481"/><path d="M370.407 171.879c2.635-.535 8.933-.213 13.463 2.358.103.058.114.167.009.134-5.589-1.772-11.112-2.338-13.471-2.437-.032-.002-.031-.049-.001-.055zM370.641 177.686c2.322-.228 8.797.394 13.298 3.157.101.062.104.172.001.134-5.763-2.092-10.953-2.996-13.301-3.237-.033-.003-.028-.051.002-.054z" style="fill:#263238"/><path d="m382.266 226.3-5.768-26.084s9.1-10.198 18.481-18.305c9.381-8.107 13.847-7.24 8.231 7.195-5.615 14.436-13.88 31.162-20.944 37.194z" style="fill:#ffc727"/><path d="m382.266 226.3-5.768-26.084s9.1-10.198 18.481-18.305c9.381-8.107 13.847-7.24 8.231 7.195-5.615 14.436-13.88 31.162-20.944 37.194z" style="fill:#ffc727"/><path d="M379.76 199.656a157.042 157.042 0 0 1 2.599 10.767c.373 1.82.722 3.643 1.046 5.472.33 1.865.536 3.747.818 5.618.014.092-.127.104-.143.014-.673-3.655-1.484-7.297-2.225-10.94-.739-3.634-1.483-7.266-2.22-10.901-.014-.071.106-.1.125-.03z" style="fill:#263238"/><path d="M401.276 193.922c-.197.468-.393.927-.581 1.395 0-.103.019-.206.028-.309.103-.609.225-1.208.496-1.798a3.7 3.7 0 0 1 .057.712zm-16.069-.525c-.078.609-.122 1.223-.022 1.857.273-.581.402-1.183.497-1.789.077-.609.12-1.223.022-1.857-.271.581-.401 1.182-.497 1.789zm5.248 18.675c-.078.609-.121 1.223-.022 1.857.273-.581.402-1.183.497-1.789.077-.609.121-1.223.022-1.857-.271.581-.401 1.182-.497 1.789zm-6.196-8.087c-.609-.078-1.223-.122-1.857-.022.581.273 1.183.402 1.789.497.609.077 1.223.12 1.857.022-.582-.271-1.183-.401-1.789-.497zm19.069-24.41c-.609-.078-1.223-.122-1.857-.022.581.273 1.183.402 1.789.497.609.077 1.223.12 1.857.022-.581-.271-1.183-.401-1.789-.497zm-6.781 24.646c.009.038.028.075.047.112.019-.019.028-.028.028-.047-.018-.028-.046-.046-.075-.065zm-14.809 10.935c.375.486.779.951 1.298 1.328-.218-.604-.552-1.121-.913-1.617-.376-.485-.779-.95-1.298-1.328.218.604.552 1.121.913 1.617zm10.346-16.241c.486-.375.951-.779 1.328-1.298-.604.218-1.121.552-1.617.914-.485.376-.95.779-1.328 1.298.603-.219 1.12-.553 1.617-.914zm2.828-11.24c.377.485.781.948 1.302 1.324-.22-.603-.555-1.119-.919-1.614-.378-.484-.782-.947-1.302-1.324.221.603.557 1.118.919 1.614z" style="fill:#fff"/><path d="M403.21 189.11c-5.62 14.43-13.88 31.16-20.94 37.19l-2.38-10.74 25.34-37.97c.96 1.52.43 5.23-2.02 11.52z" style="fill:#263238"/><path d="M386.989 232.653s18.025 4.271 52.178 1.321c0 0-13.354-42.627-24.109-54.118-4.894-5.229-9.678-4.43-13.732-1.066-1.011.841-13.551 16.756-14.613 22.303-.939 4.902 3.046 10.343 3.046 10.343l-2.77 21.217z" style="fill:#ffc727"/><path d="M401.223 193.214c.099.634.055 1.248-.022 1.857-.095.606-.224 1.208-.497 1.789-.1-.634-.056-1.248.022-1.857.096-.606.225-1.208.497-1.789zm-1.316 32.371c-.078.609-.122 1.223-.022 1.857.273-.581.402-1.183.497-1.789.077-.609.12-1.223.022-1.857-.272.581-.401 1.182-.497 1.789zm-8.846 5.519c-.078.609-.122 1.223-.022 1.857.273-.581.402-1.183.497-1.789.077-.609.12-1.223.022-1.857-.272.581-.401 1.183-.497 1.789zm28.672-25.251c-.078.609-.122 1.223-.022 1.857.273-.581.402-1.183.497-1.789.077-.609.12-1.223.022-1.857-.272.581-.401 1.183-.497 1.789zm-29.278 6.219c-.078.609-.121 1.223-.022 1.857.273-.581.402-1.183.497-1.789.077-.609.121-1.223.022-1.857-.271.581-.401 1.182-.497 1.789zm19.827-13.54c-.609-.078-1.223-.122-1.857-.022.581.273 1.183.402 1.789.497.609.077 1.223.12 1.857.022-.581-.271-1.183-.401-1.789-.497zm10.626 18.043c-.609-.078-1.223-.122-1.857-.022.581.273 1.183.402 1.789.497.609.077 1.223.12 1.857.022-.582-.271-1.183-.401-1.789-.497zm-17.699-1.483c-.609-.078-1.223-.122-1.857-.022.581.273 1.183.402 1.789.497.609.077 1.223.12 1.857.022-.582-.272-1.183-.401-1.789-.497zm32.109 16.578c-.609-.078-1.223-.122-1.857-.022.581.273 1.183.402 1.789.497.609.077 1.223.12 1.857.022-.581-.271-1.183-.401-1.789-.497zm-31.99-52.095c-.609-.078-1.223-.122-1.857-.022.581.273 1.183.402 1.789.497.609.077 1.223.12 1.857.022-.581-.271-1.183-.401-1.789-.497zm8.714 5.382c.375.486.779.951 1.298 1.328-.218-.604-.552-1.121-.913-1.617-.376-.485-.78-.95-1.298-1.328.219.603.552 1.12.913 1.617zm16.096 23.029c.375.486.779.951 1.298 1.328-.218-.604-.552-1.121-.913-1.617-.376-.485-.78-.95-1.298-1.328.219.604.552 1.121.913 1.617zm-30.678-2.147c.375.486.779.951 1.298 1.328-.218-.604-.552-1.121-.913-1.617-.376-.485-.779-.95-1.298-1.328.219.604.553 1.12.913 1.617zm15.336 17.166c.375.486.779.951 1.298 1.328-.218-.604-.552-1.121-.914-1.617-.376-.485-.779-.95-1.298-1.328.219.604.553 1.121.914 1.617zm-18.137-35.699c.092.12.175.239.258.359.377.488.773.957 1.298 1.334-.221-.607-.552-1.123-.92-1.62a8.921 8.921 0 0 0-.368-.451l-.268.378zm-2.575 11.609c.486-.375.951-.779 1.328-1.298-.604.218-1.121.552-1.617.914-.485.376-.95.779-1.328 1.298.603-.219 1.12-.553 1.617-.914zm39.025 21.396c.486-.375.951-.778 1.328-1.298-.604.218-1.121.552-1.617.914-.485.376-.95.779-1.328 1.298.603-.219 1.12-.553 1.617-.914zm-39.874.674c.486-.375.951-.778 1.328-1.298-.604.218-1.121.552-1.617.914-.485.376-.95.78-1.328 1.298.603-.22 1.12-.553 1.617-.914zm27.54-26.645c.486-.375.951-.779 1.328-1.298-.604.218-1.121.552-1.617.913-.485.376-.95.78-1.328 1.298.603-.219 1.12-.552 1.617-.913zm-11.325 38.203c.486-.375.951-.779 1.328-1.298-.604.218-1.121.552-1.617.913-.485.376-.95.78-1.328 1.298.604-.219 1.12-.553 1.617-.913zm3.366-23.488c.486-.375.951-.779 1.328-1.298-.604.218-1.121.552-1.617.913-.485.376-.95.779-1.328 1.298.603-.219 1.12-.553 1.617-.913zm12.808 18.864c.486-.375.951-.779 1.328-1.298-.604.218-1.121.552-1.617.913-.485.376-.95.779-1.328 1.298.604-.219 1.121-.553 1.617-.913z" style="fill:#fff"/><path d="M393.25 189.358c-1.106 1.479-2.101 3.016-3.045 4.594.385-.893.747-1.794 1.063-2.719.013-.038-.047-.061-.065-.025-.328.654-.663 1.306-.938 1.985a60.972 60.972 0 0 0-.714 1.834.58.58 0 0 1-.02.033c-1.06 1.863-2.299 3.746-2.83 5.846-.474 1.874-.388 3.884.12 5.741.264.968.655 1.894 1.117 2.784.398.768.845 1.576 1.467 2.193-.345 1.965-.572 3.96-.829 5.938-.25 1.917-.596 3.883-.605 5.82 0 .123.176.135.209.023.039-.139.082-.277.127-.415.009-.027-.003-.049-.019-.066.422-1.783.606-3.651.851-5.459.255-1.879.73-5.801.732-5.823.008-.09-.895-1.643-1.249-2.39a16.889 16.889 0 0 1-1.035-2.837c-.497-1.847-.629-3.775-.114-5.633.549-1.981 1.653-3.877 2.649-5.662a345.907 345.907 0 0 1 3.253-5.67c.043-.075-.071-.164-.125-.092z" style="fill:#263238"/><path d="M410.632 178.488c-.205.922-4.526 6.939-8.73 6.789-1.369-.051-1.423-7.537-1.423-7.537l-.131-.552-1.818-7.724 9.031-5.938 1.306-.787s.358 2.146.777 4.823l.06.381c.028.151.056.293.075.435.068.399.135.807.194 1.214.046.31.092.611.129.938.045.327.082.646.127.973.372 3.237.485 6.593.403 6.985z" style="fill:#eb9481"/><path d="M409.643 167.561c-2.149 6.188-7.044 8.755-9.295 9.627l-1.818-7.724 9.031-5.938 1.306-.787c-.001-.001.357 2.145.776 4.822z" style="fill:#263238"/><path d="M387.061 155.162c-3.971 13.348 3.575 17.234 6.454 18.087 2.614.774 11.612 3.079 16.941-9.787 5.329-12.867.378-18.933-5.506-21.02-5.883-2.087-13.918-.628-17.889 12.72z" style="fill:#eb9481"/><path d="M389.63 153.418c.325.05.634.041.96.057.369.018.66.07.99-.129.177-.107.246-.402.159-.583-.203-.423-.649-.557-1.092-.597-.481-.043-.862.047-1.261.317-.387.262-.185.87.244.935zM398.849 155.91c-.305-.123-.566-.287-.855-.44-.327-.172-.604-.276-.787-.615-.098-.182-.007-.471.161-.583.39-.261.842-.149 1.244.042.435.208.718.479.924.915.199.422-.285.843-.687.681zM395.818 158.624c.017-.033.058.064.046.101-.3.9-.493 1.981.239 2.528.023.017.006.062-.023.049-.961-.441-.691-1.874-.262-2.678z" style="fill:#263238"/><path d="M396.913 157.918c1.494.326.733 3.291-.652 2.989-1.362-.298-.601-3.262.652-2.989z" style="fill:#263238"/><path d="M397.455 158.224c.216.234.394.596.698.707.352.129.705-.112 1.017-.35.033-.025.051.008.042.047-.137.57-.506 1.097-1.136 1.025-.576-.065-.845-.671-.84-1.278 0-.113.132-.245.219-.151zM390.763 157.119c.001-.037-.083.026-.091.064-.2.927-.584 1.956-1.493 2.054-.028.003-.037.05-.005.053 1.051.11 1.548-1.26 1.589-2.171z" style="fill:#263238"/><path d="M390.18 155.954c-1.452-.48-2.306 2.459-.961 2.904 1.324.438 2.178-2.501.961-2.904z" style="fill:#263238"/><path d="M389.511 155.969c-.277.088-.589.305-.872.242-.327-.072-.473-.459-.59-.824-.012-.038-.042-.02-.055.019-.179.557-.163 1.197.345 1.461.464.241.966-.136 1.262-.656.055-.096.021-.277-.09-.242zM393.987 166.19c-.268.171-.552.424-.895.382-.329-.04-.677-.265-.949-.442-.027-.018-.063.007-.05.039.167.407.627.736 1.073.75.436.014.719-.305.901-.668.026-.051-.041-.086-.08-.061zM390.847 163.742s.337 1.044 1.083 1.632c.274.218.596.375.98.4.788.054 1.031-.605 1.09-1.218.05-.504-.031-.98-.031-.98s-1.392.633-3.122.166z" style="fill:#263238"/><path d="M391.93 165.374c.274.218.596.375.98.4.788.054 1.031-.605 1.09-1.218-.804-.182-1.75.085-2.07.818z" style="fill:#ff98b9"/><path d="M391.051 161.849s-.557 1.317-.731 1.962c-.016.06.132.131.348.203.01.006.014.012.025.008 1.091.485 2.344.4 3.287-.343.062-.051-.002-.14-.072-.115-1.019.395-2.002.303-3.016.048.003-.191 1.03-2.223.93-2.258-.344-.125-1.104-.073-1.554-.063 1.082-2.776 2.599-5.356 3.635-8.137.035-.1-.103-.17-.157-.087-1.782 2.591-3.097 5.759-4.288 8.597-.153.352 1.305.225 1.593.185z" style="fill:#263238"/><path d="M409.102 163.605c-2.201-.435-1.433-5.09-1.433-5.09s-4.381-1.21-4.066-7.908c0 0-.724 2.956.483 5.746 0 0-7.489-2.975-8.934-10.342 0 0 .377 3.652 1.266 5.162 0 0-2.985-1.808-3.829-4.877 0 0-2.393 3.35-3.721 4.089 0 0 4.092-13.416 16.202-8.483 0 0 7.688 2.709 8.769 9.696 1.08 6.986-4.737 12.007-4.737 12.007z" style="fill:#263238"/><path d="M409.018 168.391a2.85 2.85 0 0 1-.665.033 2.156 2.156 0 0 1-.647-.115 1.921 1.921 0 0 1-.734-.416 2.306 2.306 0 0 1-.433-.503c-.285-.449-.36-.872-.36-.872l1.504-3.489s3.856-3.645 5.565-2.186c1.716 1.459-1.788 7.172-4.23 7.548z" style="fill:#eb9481"/><path d="M412.205 162.452c.037.004.034.057 0 .063-1.723.318-2.863 1.62-3.764 3.029.594-.491 1.304-.682 1.977.044.036.038-.018.095-.06.076-.623-.274-1.116-.257-1.663.174-.387.305-.696.729-1.007 1.109-.103.127-.345-.002-.257-.155l.021-.034c.375-2.035 2.534-4.549 4.753-4.306z" style="fill:#263238"/><path d="M408.946 167.778a.645.645 0 1 1-1.188-.504.645.645 0 0 1 1.188.504zM410.441 167.091a.457.457 0 1 1-.84-.357.457.457 0 0 1 .84.357z" style="fill:#fff"/><path d="M417.903 182.768c8.918 12.065 25.941 40.622 20.227 46.911-9.394 10.341-31.988 19.088-39.023 21.006-3.036.828-13.203-21.388-10.317-23.118 3.464-2.076 27.662-9.479 27.595-11.538-.038-1.167-2.556-10.96-4.632-23.527-2.408-14.577 1.899-15.485 6.15-9.734z" style="fill:#eb9481"/><path d="M399.805 226.307s-9.117-2.921-15.168-4.552c-3.376-.909-9.304-1.952-12.09-1.486-4.167.698-21.15 6.277-19.886 10.424 1.144 3.754 15.126-2.892 15.126-2.892s-14.701 5.459-12.493 9.725c2.209 4.266 17.007-5.343 17.007-5.343s-14.979 5.948-12.006 9.987c2.247 3.052 16.141-4.896 16.141-4.896s-12.84 5.201-10.664 8.44c2.404 3.579 15.689-2.953 15.689-2.953 6.917 7.302 13.197 7.949 17.719 7.878 1.097-.018.625-24.332.625-24.332z" style="fill:#eb9481"/><path d="M372.751 225.587c-1.75.579-3.525 1.153-5.218 1.885a59.106 59.106 0 0 0-4.978 2.411c-3.966 2.174-6.109 4.156-5.963 4.048 3.446-2.554 9.465-5.27 11.158-6.002 1.689-.731 3.342-1.546 5.031-2.279.043-.018.012-.077-.03-.063zM375.507 231.651c-2.203.836-4.42 1.585-6.587 2.518-2.156.929-4.12 1.999-6.206 3.073-.161.083-.063.142.101.065 2.127-.99 4.171-1.742 6.31-2.707 2.132-.962 4.242-2.015 6.406-2.898.033-.014.009-.064-.024-.051zM378.807 236.43c-3.432 1.105-6.656 2.841-9.777 4.62-.155.089-.021.151.143.07 3.221-1.597 5.737-2.873 9.673-4.571.062-.026.034-.142-.039-.119zM381.069 220.895c-.957-.422-2.023-.655-3.033-.894a20.288 20.288 0 0 0-2.926-.472c-2.151-.187-4.249.104-6.308.771a55.985 55.985 0 0 0-11.664 5.307c-.075.045-.019.186.063.149 3.753-1.699 7.574-3.316 11.487-4.555 2.037-.645 4.067-1.066 6.201-.958 1.089.055 2.17.216 3.248.381.957.146 1.923.404 2.89.456.089.006.127-.147.042-.185z" style="fill:#263238"/><path d="m440.34 225.585-24.747-10.061s-3.229-13.281-4.576-25.607c-1.348-12.326 1.901-15.509 10.596-2.691 8.694 12.819 17.771 29.119 18.727 38.359z" style="fill:#ffc727"/><path d="M420.342 185.41c.111.147.221.304.331.46a5.065 5.065 0 0 1-.294.828 5.019 5.019 0 0 1-.037-1.288zm-.609 20.443c-.078.609-.122 1.223-.022 1.857.273-.581.402-1.183.497-1.789.077-.609.12-1.223.022-1.857-.272.581-.401 1.183-.497 1.789zm1.175 10.722c-.609-.078-1.223-.122-1.857-.022.581.273 1.183.402 1.789.497.609.077 1.223.12 1.857.022-.582-.271-1.183-.401-1.789-.497zm5.36-19.34c.58.276 1.178.405 1.785.497l.276.028c-.101-.166-.202-.34-.304-.506-.579-.083-1.159-.111-1.757-.019zm-14.226-12.278c.375.486.779.951 1.298 1.328-.218-.604-.552-1.121-.913-1.617-.376-.485-.78-.95-1.298-1.328.219.603.552 1.12.913 1.617zm16.096 23.029c.375.486.779.951 1.298 1.328-.218-.604-.552-1.121-.913-1.617-.376-.485-.78-.95-1.298-1.328.219.604.552 1.121.913 1.617zm2.971 12.325c.486-.375.951-.778 1.328-1.298-.604.218-1.121.552-1.617.914-.485.376-.95.779-1.328 1.298.603-.219 1.12-.553 1.617-.914zm-12.334-25.971c.486-.375.951-.779 1.328-1.298-.604.218-1.121.552-1.617.913-.485.376-.95.78-1.328 1.298.603-.219 1.12-.552 1.617-.913z" style="fill:#fff"/><path d="M411.255 197.555c.387.689.641 1.479.896 2.224.088.256.171.514.255.771-.213-1.43-.418-2.861-.615-4.296-.013-.094.128-.134.146-.037.627 3.237 3.505 18.411 3.636 19.198.069.008.836.446.884.442.052-.004-.019.159-.054.121-.03-.033-.992-.445-.995-.453-.315-.692-2.585-12.272-2.802-13.678-.032-.064-.067-.129-.09-.19l-.224-.601c-.139-.371-.265-.747-.394-1.121-.265-.766-.574-1.552-.722-2.35-.009-.045.054-.074.079-.03zM416.051 212.737c.977.178 1.95.567 2.897.863.962.3 1.928.583 2.885.898 1.845.606 3.67 1.259 5.491 1.935 3.65 1.357 7.289 2.78 10.784 4.501.073.036.018.157-.059.13-3.732-1.301-7.399-2.779-11.1-4.163-1.819-.68-3.642-1.35-5.463-2.028-.911-.339-1.814-.7-2.727-1.034-.906-.332-1.88-.593-2.746-1.017-.052-.026-.01-.094.038-.085zM408.79 143.906c.098 1.547 7.461 5.215 12.703 1.23 5.163-3.924 2.996-11.799-4.195-10.982-4.544.517-8.714 6.481-8.508 9.752z" style="fill:#263238"/><path d="M424.11 138.142c-.804-1.943-2.306-3.492-4.031-4.432-1.742-.95-3.811-.967-5.47.035-1.714.941-3.007 2.571-4.014 4.32-.493.889-.911 1.83-1.239 2.805-.343.972-.597 1.984-.565 3.037-.295-1.031-.151-2.132.017-3.18a13.71 13.71 0 0 1 .981-3.068c.904-1.947 2.274-3.801 4.252-4.92.987-.545 2.138-.887 3.293-.839a6.432 6.432 0 0 1 3.196 1.032c1.866 1.194 3.204 3.125 3.58 5.21z" style="fill:#263238"/><path d="M160.251 448.79c-2.057.664-60.7-.096-62.912-1.545-.85-.536-1.238-9.087-1.409-19.433l-.002-.324c-.04-2.132-.068-4.328-.071-6.553a35.018 35.018 0 0 0-.011-.918l2.846-30.423 39.229.393-3.872 30.137-.045 1.193-.237 6.238-.023.642s22.316 10.331 24.583 12.18c2.247 1.843 3.981 7.759 1.924 8.413z" style="fill:#d3766a"/><path d="M160.251 448.79c-2.057.664-60.7-.096-62.912-1.545-.85-.536-1.238-9.087-1.409-19.433l-.002-.324c-.04-2.132-.068-4.328-.071-6.553a35.018 35.018 0 0 0-.011-.918l38.203.107-.045 1.193-.237 6.238-.023.642s22.316 10.331 24.583 12.18c2.247 1.843 3.981 7.759 1.924 8.413z" style="fill:#ebebeb"/><path d="M160.256 448.786c-1.059.341-16.991.305-32.564-.009-3.131-.063-6.244-.135-9.213-.215-11.106-.305-20.283-.763-21.135-1.319-.843-.529-1.229-8.845-1.399-19 0-.143-.009-.287-.009-.431 0-.108 0-.224-.009-.332h.045l37.794.072-.018.646s22.32 10.326 24.58 12.173c2.251 1.849 3.982 7.76 1.928 8.415z" style="fill:#ffc727"/><path d="M159.616 446.508c-9.882-.371-49.776-.934-59.573-.55-.08.003-.08.057-.001.062 9.787.582 49.684.822 59.571.65.21-.004.212-.154.003-.162zM137.976 427.719c-3.88-.776-8.646-.241-11.654 2.492-.117.106.036.27.162.232 3.853-1.16 7.448-1.89 11.47-2.233.283-.024.3-.436.022-.491zM140.761 429.447c-3.88-.776-8.646-.241-11.654 2.492-.117.106.036.27.162.232 3.854-1.16 7.448-1.89 11.47-2.233.284-.024.301-.435.022-.491zM143.548 431.176c-3.881-.777-8.646-.241-11.654 2.492-.117.106.036.27.162.232 3.854-1.16 7.448-1.89 11.47-2.233.283-.024.299-.435.022-.491z" style="fill:#263238"/><path d="M127.692 448.777c-3.131-.063-6.244-.135-9.213-.215-11.106-.305-20.283-.763-21.135-1.319-.843-.529-1.229-8.845-1.399-19 0-.143-.009-.287-.009-.431 0-.108 0-.224-.009-.332h.045c5.175 3.634 23.421 15.78 31.72 21.297z" style="fill:#263238"/><path d="M136.339 427.687H94.105s8.505-98.644 8.173-100.366c-.422-2.207-2.915-12.191-6.235-25.235a7739.57 7739.57 0 0 0-3.328-12.999c-3.149-12.272-6.62-25.684-9.644-37.355-4.539-17.484-8.083-31.066-8.083-31.066h35.794s4.172 13.223 9.429 30.429c8.567 27.962 20.014 66.447 21.144 75.804 1.829 15.107-5.016 100.788-5.016 100.788z" style="fill:#37474f"/><path d="M134.469 420.481c-6.45-.134-4.597-.187-11.048-.249-3.157-.03-23.903-.211-26.852.277-.065.011-.065.121 0 .131 2.95.489 23.695.308 26.852.277 6.451-.062 4.598-.115 11.048-.249.121-.001.121-.185 0-.187zM110.224 321.292c-1.385-6.106-3.454-12.089-5.255-18.081a12984.48 12984.48 0 0 0-11.048-36.51c-1.848-6.083-3.7-12.165-5.571-18.241-.945-3.068-1.887-6.137-2.848-9.2-.94-2.997-2.01-5.969-2.858-8.994-.345-1.23-.534-.554-.092 1.008.891 3.15 1.77 6.304 2.689 9.446a6039.505 6039.505 0 0 0 5.492 18.659c3.661 12.374 7.372 24.733 11.08 37.092 1.859 6.197 3.73 12.39 5.591 18.586.889 2.961 1.76 5.939 2.283 8.991.546 3.183.574 6.402.373 9.619-.405 6.462-1.154 12.914-1.75 19.361l-1.794 19.381c-1.19 12.857-2.381 25.713-3.538 38.572-.147 1.63-.289 3.259-.415 4.891-.042.546.783.504.841-.021 1.391-12.713 2.458-25.467 3.651-38.199 1.188-12.67 2.376-25.34 3.56-38.01.297-3.181.636-6.368.638-9.566.001-2.967-.373-5.893-1.029-8.784z" style="fill:#263238"/><path d="M106.718 220.666c-2.485 19.224-7.222 55.269-10.675 81.42-8.074-31.685-21.055-81.42-21.055-81.42h31.73z" style="fill:#263238"/><path d="M115.509 449.355c-2.055.671-60.7.125-62.918-1.315-.852-.533-1.271-9.083-1.48-19.428l-.004-.324a383.372 383.372 0 0 1-.095-6.552 31.113 31.113 0 0 0-.015-.918c-.137-14.931.94-30.423.94-30.423l38.333.25-1.07 30.141-.041 1.194-.214 6.239-.021.642s22.354 10.249 24.628 12.09c2.257 1.833 4.013 7.742 1.957 8.404z" style="fill:#d3766a"/><path d="M115.509 449.355c-2.055.671-60.7.125-62.918-1.315-.852-.533-1.271-9.083-1.48-19.428l-.004-.324a383.372 383.372 0 0 1-.095-6.552 31.113 31.113 0 0 0-.015-.918l38.203-.032-.041 1.194-.214 6.239-.021.642s22.354 10.249 24.628 12.09c2.257 1.833 4.013 7.742 1.957 8.404z" style="fill:#ebebeb"/><path d="M115.509 449.355c-2.055.671-60.7.125-62.918-1.315-.852-.533-1.271-9.083-1.48-19.428l-.004-.324 37.839-.07-.021.642s22.354 10.249 24.628 12.09c2.256 1.834 4.012 7.743 1.956 8.405z" style="fill:#ffc727"/><path d="M114.867 447.075c-9.883-.335-49.779-.753-59.574-.333-.08.004-.08.058-.001.062 9.789.546 49.686.64 59.573.432.209-.003.211-.154.002-.161zM93.158 428.365c-3.883-.762-8.647-.209-11.645 2.535-.116.106.037.27.163.231 3.849-1.174 7.44-1.917 11.462-2.275.283-.025.298-.436.02-.491zM95.95 430.084c-3.884-.762-8.647-.209-11.645 2.535-.116.106.037.27.163.231 3.849-1.174 7.441-1.917 11.462-2.275.283-.025.298-.437.02-.491zM98.742 431.802c-3.883-.762-8.647-.209-11.645 2.535-.116.106.037.27.163.231 3.849-1.174 7.441-1.917 11.462-2.274.283-.026.298-.437.02-.492z" style="fill:#263238"/><path d="M109.624 220.666s-.825 17.125-4.746 30.689a56.078 56.078 0 0 1-1.023 3.283s-4.082 1.48-10.316 5.302c0 0-.413 13.779-.825 29.146-.458 17.179-.933 36.341-.834 40.405.359 15.206-1.902 98.814-1.902 98.814l-42.226.171s7.634-93.369 7.58-98.94c-.081-8.953 2.045-48.523 3.687-77.383 1.005-17.78 1.83-31.488 1.83-31.488h48.775z" style="fill:#37474f"/><path d="M88.531 420.795c-6.451-.107-4.598-.167-11.049-.202-3.157-.017-23.903-.11-26.85.392-.065.011-.065.121 0 .131 2.952.476 23.696.207 26.853.163 6.451-.09 4.598-.134 11.047-.296.121-.003.12-.186-.001-.188zM64.398 226.785c-.777 23.558-1.601 47.119-2.654 70.667-1.057 23.629-2.482 47.249-4.459 70.82-1.105 13.169-2.146 31.693-3.567 44.831-.01.088.125.12.137.03 3.075-23.369 4.788-52.265 6.3-75.782 1.512-23.513 2.536-47.067 3.338-70.615.454-13.32.8-26.645 1.199-39.967.006-.189-.288-.172-.294.016zM105.611 253.619c-4.204 1.67-8.231 3.95-12.072 6.323-.151.093-.038.328.127.249 4.074-1.979 8.233-3.885 12.192-6.086.312-.173.076-.614-.247-.486z" style="fill:#263238"/><path d="M105.848 239.089c-.279 1.501-.643 2.986-.967 4.478-.304 1.399-.528 2.828-.898 4.211-.359 1.342-.93 2.572-1.961 3.53-.549.51-1.154.962-1.74 1.43-.315.252-.657.494-.985.749.043-.198.077-.4.113-.604.1-.569.196-1.139.292-1.708.212-1.264.414-2.53.608-3.797.381-2.49.731-5.007 1.251-7.473.021-.1-.13-.139-.155-.039-.621 2.443-1.306 4.86-1.846 7.324-.265 1.209-1.211 7.175-1.252 7.597-.043.436-.08.873-.095 1.311-.016.432-.101.915-.002 1.34.026.109.157.091.203.018l.006.004c.217-.38.271-.876.38-1.297.109-.426.206-.858.282-1.291.028-.156.049-.316.071-.476.588-.357 1.135-.829 1.684-1.227.592-.429 1.195-.846 1.755-1.318 1.073-.903 1.743-2.01 2.143-3.348.415-1.389.543-2.854.703-4.288.189-1.695.328-3.4.565-5.089.014-.098-.136-.139-.155-.037z" style="fill:#263238"/><path d="M90.723 179.81c6.542 12.962 23.129 39.362 31.68 39.526 10.684.206 32.013-15.374 37.323-21.453 2.314-2.649-16.061-20.931-18.786-18.339-3.644 3.465-16.021 14.006-16.445 14.175-.908.364-16.665-12.688-26.146-21.108-10.617-9.426-12.577-2.609-7.626 7.199z" style="fill:#d3766a"/><path d="M154.65 202.066s8.035-6.527 13.089-11.042c2.82-2.519 7.268-7.269 8.493-10.067 1.832-4.186 6.821-22.86 2.32-24.167-4.075-1.183-6.324 15.405-6.324 15.405s3.749-16.538-1.419-17.06c-5.169-.523-5.218 18.557-5.218 18.557s3.471-17.078-1.944-16.774c-4.092.23-5.11 17.508-5.11 17.508s2.882-14.7-1.337-14.645c-4.662.061-6.602 15.951-6.602 15.951-10.7 1.945-14.902 6.963-17.511 11.1-.633 1.001 21.563 15.234 21.563 15.234z" style="fill:#d3766a"/><path d="M171.297 177.997c.511-1.926 1.041-3.873 1.379-5.839a64.03 64.03 0 0 0 .76-5.932c.376-4.876-.152-7.988-.14-7.792.275 4.63-.825 11.685-1.163 13.651-.337 1.961-.576 3.94-.911 5.902-.009.05.063.056.075.01zM164.178 176.907c.546-2.488 1.179-4.939 1.615-7.452.434-2.501.626-4.912.887-7.436.02-.194-.091-.141-.119.053-.361 2.512-.889 4.806-1.279 7.313-.389 2.499-.684 5.031-1.163 7.513-.009.039.051.047.059.009zM157.899 177.07c1.029-3.76 1.362-7.706 1.597-11.584.012-.193-.124-.109-.148.088-.458 3.861-.79 6.893-1.58 11.46-.012.071.11.115.131.036z" style="fill:#263238"/><path d="m132.272 186.31 15.472 25.193s-19.084 10.223-26.327 8.355c-7.243-1.868-25.27-25.069-31.396-39.934-6.126-14.865 1.541-13.736 7.535-8.677 5.993 5.06 26.66 21.795 26.971 21.756.311-.038 7.745-6.693 7.745-6.693z" style="fill:#ffc727"/><path d="M135.112 201.868a269.032 269.032 0 0 0-3.107-5.421c-.504-.864-1.001-1.733-1.532-2.58-.572-.912-1.087-1.894-1.722-2.762-.044-.061-.132-.015-.103.056.401.997.964 1.95 1.434 2.918.436.899.914 1.779 1.38 2.663.973 1.841 1.945 3.683 2.961 5.501 2.034 3.643 4.164 7.215 6.344 10.772.052.085.183.016.137-.075-1.867-3.728-3.774-7.422-5.792-11.072zM124.357 192.955c-1.912 1.401-3.306 2.614-5.003 4.265a56.323 56.323 0 0 0-2.484 2.572c-.825.912-1.57 1.886-2.38 2.806-.066.075.042.18.113.108.833-.848 1.756-1.626 2.622-2.443.868-.819 1.731-1.643 2.587-2.474 1.709-1.656 3.093-2.877 4.735-4.6.116-.121-.047-.339-.19-.234zM128.31 219.41c-2.7.65-5.14.9-6.89.45-7.25-1.87-25.27-25.07-31.4-39.94-1.2-2.92-1.87-5.22-2.13-7l40.42 46.49z" style="fill:#263238"/><path d="M55.809 244.607c.155.151 62.027-2.21 62.545-2.885.723-.951-18.034-66.034-24.975-73.861-1.486-1.673-10.273-3.534-14.842.953-14.802 14.538-23.279 75.248-22.728 75.793z" style="fill:#ffc727"/><path d="M102.082 186.336c-.03-.101.135-.17.176-.069a219.852 219.852 0 0 1 2.891 7.698c-.042-.37-.082-.741-.111-1.112-.075-.978-.065-1.961-.154-2.939-.008-.092.142-.091.146.004.049 1.01.239 2.004.388 3.003.134.9.257 1.802.409 2.699.027.158.051.317.076.475 1.498 4.3 7.125 24.059 9.245 31.878 1.195 4.408 2.242 8.851 3.227 13.309.02.092-.115.125-.142.035-2.293-7.736-4.509-15.497-6.793-23.237-2.101-7.121-8.073-27.393-9.358-31.744zM94.967 170.604c-.007-.029-.05-.022-.046.007.366 2.796 1.031 9.29-3.398 9.195-1.784-.038-3.477-1.034-4.902-2.026-1.463-1.019-2.786-2.227-3.996-3.533-1.343-1.449-2.727-2.971-3.812-4.625-.046-.07-.152.014-.102.084 1.162 1.644 2.155 3.367 3.475 4.901 1.271 1.476 2.695 2.833 4.318 3.917 1.521 1.015 3.319 2.002 5.202 1.952 1.792-.047 3.016-1.239 3.427-2.924.541-2.214.331-4.749-.166-6.948z" style="fill:#263238"/><path d="M91.554 176.802c-3.147.529-8.809-4.994-10.657-8.969-.125-.273.461-3.02 1.015-6.391.328-2.047.645-4.334.784-6.442l13.008 4.082s-1.59 4.333-1.81 8.009a4.68 4.68 0 0 0 .034.871c.002.04.01.089.01.145.159 1.66.657 8.182-2.384 8.695z" style="fill:#d3766a"/><path d="M93.928 167.96c0 .037.009.094.009.15a8.424 8.424 0 0 1-1.367-.019c-7.762-.824-9.222-9.672-9.494-12.968l12.631 3.96s-1.592 4.335-1.816 8.005c-.01.31 0 .601.037.872z" style="fill:#263238"/><path d="M78.887 141.143c-.799 4.846 3.455 17.969 7.167 20.526 5.381 3.707 13.297 3.074 16.221-3.191 2.834-6.072-3.012-23.076-7.075-25.308-5.984-3.286-15.131.815-16.313 7.973z" style="fill:#d3766a"/><path d="M93.599 147.445c-.017-.032-.057.063-.044.099.298.88.492 1.939-.222 2.479-.022.017-.006.061.023.047.939-.436.667-1.839.243-2.625z" style="fill:#263238"/><path d="M92.523 146.758c-1.463.326-.703 3.228.653 2.925 1.334-.297.573-3.199-.653-2.925zM98.644 146.108c-.002-.036.081.024.09.061.207.906.597 1.909 1.488 1.995.028.003.037.049.006.052-1.029.121-1.533-1.216-1.584-2.108z" style="fill:#263238"/><path d="M99.201 144.959c1.417-.488 2.29 2.381.977 2.834-1.292.446-2.165-2.424-.977-2.834zM91.03 145.731c.369-.203.676-.452 1.02-.69.388-.269.726-.444.906-.902.097-.246-.063-.601-.293-.717-.536-.271-1.094-.06-1.575.245-.522.331-.839.719-1.035 1.304-.188.567.491 1.028.977.76zM99.94 143.204c-.419.04-.813.007-1.232.003-.473-.004-.849.042-1.257-.236-.219-.149-.286-.532-.161-.758.291-.526.871-.665 1.44-.683.618-.02 1.099.122 1.589.497.477.362.175 1.125-.379 1.177zM94.789 155.862c.271.154.561.387.895.329.32-.056.649-.293.907-.479.025-.018.062.004.051.036-.143.406-.577.751-1.013.787-.426.036-.719-.263-.915-.61-.028-.048.035-.085.075-.063z" style="fill:#263238"/><path d="M95.028 152.923c.708.648 1.559.881 2.4.826a3.983 3.983 0 0 0 1.114-.238c.072-.021.142-.048.204-.079.063-.025.121-.048.189-.082.101-.043.136-.145.128-.248l-.002-.007a.423.423 0 0 0-.033-.09l-.002-.007-.022-.078c-.162-.697-.505-1.732-.505-1.732.286.06 1.727.303 1.612-.054-.963-2.946-2.034-6.223-3.614-8.951-.048-.093-.193-.03-.158.066.813 2.868 2.126 5.574 2.989 8.442-.452-.048-1.199-.162-1.559-.06-.091.054.698 1.988.746 2.307 0 0 .004.013.003.035-1.124.453-2.092.332-3.426-.153-.081-.033-.136.046-.064.103z" style="fill:#263238"/><path d="M98.042 153.268s-.397.989-1.159 1.508c-.28.192-.602.324-.976.322-.767-.001-.958-.655-.974-1.253-.015-.492.096-.947.096-.947s1.305.706 3.013.37z" style="fill:#263238"/><path d="M96.883 154.775c-.28.192-.602.324-.976.322-.767-.001-.958-.655-.974-1.253.791-.122 1.689.201 1.95.931z" style="fill:#ff98b9"/><path d="M81.521 151.691c3.335-.761 2.624-6.965 2.624-6.965s5.52-2.225 5.386-6.725c0 0 6.218 2.252 10.147-.258 3.929-2.511 1.946-7.146 1.24-8.074-.706-.928-2.646 1.525-2.646 1.525s-.885-2.676-1.679-2.791c-.794-.115-1.217 1.72-1.217 1.72s-5.924-.613-10.892.651c-4.968 1.264-6.313 6.859-6.313 6.859s-2.546 1.167-2.992 3.234c-.447 2.067 4.216 11.309 6.342 10.824z" style="fill:#263238"/><path d="M89.275 137.188c.174.896.21 1.809.052 2.677-.173.864-.55 1.674-1.137 2.319-.595.64-1.353 1.106-2.157 1.492-.408.179-.837.32-1.26.475-.435.122-.875.231-1.314.368.454-.038.908-.105 1.367-.157.444-.115.896-.223 1.336-.37.871-.326 1.699-.815 2.357-1.511a4.63 4.63 0 0 0 1.144-2.565 5.658 5.658 0 0 0-.388-2.728zM78.292 138.322c.021-1.481.376-2.958 1.122-4.201a6.71 6.71 0 0 1 3.206-2.778c.339-.125.655-.312 1.011-.389l1.06-.259c.714-.137 1.451-.172 2.18-.246.734.014 1.474-.019 2.21.032.736.062 1.473.14 2.217.189-.727-.149-1.462-.269-2.197-.405-.739-.096-1.49-.102-2.237-.157-1.491.048-3.027.191-4.423.831-1.386.615-2.617 1.661-3.323 3.017-.72 1.341-.987 2.888-.826 4.366z" style="fill:#263238"/><path d="M92.372 152.915a4.35 4.35 0 0 1-4.638-2.629 4.349 4.349 0 0 1 2.342-5.679 4.348 4.348 0 0 1 5.679 2.341 4.35 4.35 0 0 1-3.383 5.967zm-1.172-8.022a3.769 3.769 0 0 0-2.93 5.169 3.767 3.767 0 0 0 4.92 2.028 3.768 3.768 0 0 0 2.029-4.92 3.772 3.772 0 0 0-4.019-2.277zM101.986 150.283c-1.645.24-3.382-1.226-3.97-3.415-.296-1.104-.261-2.231.1-3.171.372-.973 1.047-1.634 1.898-1.862.854-.231 1.767.007 2.576.663.783.634 1.376 1.591 1.672 2.695.62 2.313-.276 4.571-1.998 5.033a2.634 2.634 0 0 1-.278.057zm-1.604-7.931a2.068 2.068 0 0 0-.216.044c-.667.179-1.202.715-1.508 1.509-.316.826-.345 1.825-.081 2.812.538 2.004 2.12 3.329 3.537 2.947 1.413-.379 2.125-2.317 1.588-4.321-.265-.987-.789-1.837-1.477-2.395-.59-.478-1.236-.685-1.843-.596z" style="fill:#ffc727"/><path d="m95.743 147.471-.476-.333c.493-.705 1.772-1.818 3.09-.996l-.307.492c-1.179-.738-2.261.773-2.307.837zM78.21 153.493l-.567-.124c.058-.265.6-2.6 1.798-3.139 1.121-.501 7.958-1.743 8.286-1.798l.097.572c-2.21.374-7.279 1.366-8.144 1.756-.793.355-1.33 2.093-1.47 2.733z" style="fill:#ffc727"/><path d="M83.226 151.722s-3.701-3.87-5.502-2.486c-1.802 1.385 1.447 7.321 3.89 7.825 2.443.504 2.954-1.748 2.954-1.748l-1.342-3.591z" style="fill:#d3766a"/><path d="M78.697 150.915c-.037.002-.037.056-.003.064 1.721.407 2.805 1.778 3.642 3.243-.574-.525-1.281-.753-1.996-.056-.038.037.013.097.057.08.642-.244 1.138-.203 1.669.259.375.327.665.77.96 1.169.098.133.348.015.267-.143l-.019-.035c-.277-2.071-2.327-4.715-4.577-4.581z" style="fill:#263238"/><path d="m93.989 167.878-3.226 7.775-9.592-9.993-2.786 3.139s9.314 15.809 9.382 15.1l3.296-6.695 4.593 4.737-.243-11.763-1.424-2.3z" style="fill:#ebebeb"/><path d="M95.863 176.12c-.105-1.941-.157-3.898-.352-5.832-.007-.069-.114-.101-.132-.02-.41 1.868.031 9.288.003 11.066a.387.387 0 0 1-.02-.021c-.192-.205-4.26-4.171-4.301-4.109-.71 1.061-3.129 5.936-3.295 6.38-1.473-2.511-7.123-11.643-8.873-14.022-.05-.068-.156-.014-.117.066 1.296 2.649 8.771 14.945 8.888 14.912.079.063 3.084-5.942 3.448-7.079.686.862 4.787 5.331 4.804 5.043.118-1.944.052-4.441-.053-6.384z" style="fill:#263238"/><path d="M72.095 187.115c.961 15.93 5.108 45.936 14.489 52.328 9.946 6.777 38.547 7.717 46.454 7.641 3.355-.032 1.422-24.891-2.069-25.717-3.432-.813-28.027-1.844-30.476-2.94-2.449-1.096-10.368-22.649-16.449-35.211-7.146-14.762-12.73-9.042-11.949 3.899z" style="fill:#d3766a"/><path d="M147.438 223.243c-1.633-.511-1.376-1.372 1.467-2.452 2.874-1.099 15.014-2.943 14.006-7.134-1.005-4.207-18.142-1.315-22.739.846-4.603 2.151-11.276 7.269-11.276 7.269 3.447.109 11.782 1.171 18.542 1.471z" style="fill:#d3766a"/><path d="m143.897 239.344 33.831 1.197 8.086-47.655-33.831-1.197z" style="fill:#263238"/><path d="m145.559 239.403 33.831 1.197 8.086-47.655-33.831-1.197z" style="fill:#455a64"/><path d="M171.034 214.236c-.223 1.812-1.878 3.228-3.695 3.164-1.817-.064-3.11-1.585-2.886-3.397.223-1.812 1.878-3.228 3.695-3.164 1.818.064 3.11 1.585 2.886 3.397z" style="fill:#fff"/><path d="M130.882 247.088c9.72-.049 21.823.482 31.246-5.128 1.848-1.1 2.36-2.66 2.36-2.66 4.268-2.439 4.398-5.187 4.398-5.187 3.28-3.489 3.026-6.318 3.026-6.318s4.98-2.919 3.715-6.221c-1.407-3.708-8.125 1.116-13.441 1.51-12.182.902-29.75-1.223-33.29-1.312l1.986 25.316z" style="fill:#d3766a"/><path d="M150.083 233.002c3.58-.337 7.105-.574 10.62-1.394 3.857-.9 7.418-2.412 11.081-3.862.114-.045.189.109.083.171-6.216 3.674-14.572 5.556-21.772 5.248-.173-.007-.192-.146-.012-.163zM149.559 240.434c3.465-.521 9.549-1.476 19.274-6.425.032-.016.069.033.037.055-5.887 4.053-12.214 6.071-19.286 6.535-.22.014-.255-.13-.025-.165zM149.352 244.433c5.858-1.11 9.411-2.552 15.103-5.145.032-.015.067.037.033.057-6.159 3.626-8.804 4.243-15.125 5.294-.218.037-.24-.163-.011-.206z" style="fill:#263238"/><path d="m120.782 220.182 1.764 28.737s-31.588-1.578-39.557-11.065c-7.969-9.487-12.128-40.474-11.609-53.313.519-12.839 7.109-14.136 12.714-2.305 5.604 11.832 15.848 34.249 16.357 34.872.508.623 20.331 3.074 20.331 3.074z" style="fill:#ffc727"/><path d="M117.65 234.215a270.947 270.947 0 0 0-.293-6.242c-.055-.998-.1-1.999-.187-2.995-.093-1.072-.104-2.181-.273-3.243-.012-.074-.11-.073-.117.003-.098 1.07-.031 2.175-.055 3.251-.022.999.002 2 .014 2.999.026 2.082.052 4.164.126 6.246.149 4.17.416 8.32.734 12.48.008.1.155.097.156-.004.039-4.17.027-8.327-.105-12.495zM91.923 243.2c-3.047-.682-5.81-2.488-8-4.684-2.477-2.485-3.849-5.586-4.933-8.876a143.736 143.736 0 0 1-5.386-22.095c-.688-4.265-1.259-8.565-1.593-12.873-.006-.08-.127-.078-.125.003.066 3.063.246 6.113.539 9.148-.055-.206-.112-.413-.162-.619-.307-1.271-.647-2.533-.966-3.801-.045-.18-.297-.092-.269.081.208 1.296.453 2.584.8 3.851.257.939.499 1.935.851 2.863a113.134 113.134 0 0 0 2.027 11.858c.875 3.855 1.907 7.684 3.147 11.439 1.104 3.344 2.416 6.57 4.922 9.122 2.493 2.538 5.659 3.997 9.11 4.734.098.021.136-.129.038-.151zM111.577 218.93c-2.529-.578-5.087-1.036-7.648-1.457l-1.832-.302c-.686-.113-1.275-.143-1.616-.826-.6-1.204-1.108-2.463-1.66-3.691-2.034-4.526-4.093-9.044-6.23-13.523a182.277 182.277 0 0 1-1.547-4.925c-.029-.097-.172-.052-.15.045.238 1.047.521 2.078.837 3.098a265.89 265.89 0 0 0-3.245-6.501c-.052-.101-.227-.024-.184.083 2.01 5.011 4.21 9.94 6.459 14.848 1.136 2.48 2.272 4.96 3.428 7.431.549 1.173 1.056 2.38 1.653 3.529.57 1.096 1.716 1.074 2.816 1.24 2.957.446 5.919.879 8.897 1.143.112.01.127-.168.022-.192z" style="fill:#263238"/></svg>